<svg width="198" height="68" viewBox="0 0 198 68" fill="none" xmlns="http://www.w3.org/2000/svg">
<path d="M42.9869 8.31966C30.9915 -2.77525 12.3352 -2.77119 0.344564 8.31966C-0.106355 8.73672 -0.115157 9.44289 0.320867 9.87553L2.6391 12.1755C3.05482 12.5885 3.72375 12.5973 4.15571 12.2012C14.0353 3.15034 29.2948 3.14831 39.1764 12.2012C39.6084 12.5973 40.2773 12.5878 40.693 12.1755L43.0112 9.87553C43.4466 9.44289 43.4378 8.73672 42.9869 8.31966ZM21.6657 21.6658C19.2723 21.6658 17.3326 23.6055 17.3326 25.9989C17.3326 28.3923 19.2723 30.3321 21.6657 30.3321C24.0591 30.3321 25.9989 28.3923 25.9989 25.9989C25.9989 23.6055 24.0591 21.6658 21.6657 21.6658ZM35.3876 16.0063C27.5839 9.10504 15.7388 9.11249 7.94383 16.0063C7.47667 16.4193 7.46177 17.1363 7.90524 17.5737L10.237 19.875C10.6433 20.2758 11.2973 20.3029 11.7299 19.9291C17.4138 15.0157 25.9305 15.0266 31.6008 19.9291C32.0335 20.3029 32.6875 20.2765 33.0937 19.875L35.4255 17.5737C35.8697 17.1363 35.8541 16.4186 35.3876 16.0063Z" fill="white"/>
<path d="M21.6655 30.0592C20.4032 30.0592 19.3836 29.7194 18.6068 29.0397C17.8543 28.3357 17.478 27.4618 17.478 26.4179C17.478 25.3498 17.8543 24.4638 18.6068 23.7598C19.3836 23.0558 20.4032 22.7038 21.6655 22.7038C22.9036 22.7038 23.8988 23.0558 24.6514 23.7598C25.4282 24.4638 25.8166 25.3498 25.8166 26.4179C25.8166 27.4618 25.4282 28.3357 24.6514 29.0397C23.8988 29.7194 22.9036 30.0592 21.6655 30.0592ZM25.1976 31.9527V52.3804H18.0606V31.9527H25.1976ZM42.6255 31.7706C44.9802 31.7706 46.8494 32.5596 48.2331 34.1375C49.6168 35.6911 50.3086 37.8031 50.3086 40.4734V52.3804H43.1717V41.4201C43.1717 40.2549 42.8682 39.3446 42.2613 38.6891C41.6545 38.0094 40.8412 37.6696 39.8217 37.6696C38.7536 37.6696 37.9161 38.0094 37.3092 38.6891C36.7023 39.3446 36.3988 40.2549 36.3988 41.4201V52.3804H29.2619V31.9527H36.3988V34.8658C37.03 33.9433 37.8796 33.2029 38.9478 32.6446C40.0159 32.062 41.2418 31.7706 42.6255 31.7706ZM66.2775 46.2995V52.3804H63.1824C57.9631 52.3804 55.3535 49.7951 55.3535 44.6245V37.888H52.841V31.9527H55.3535V27.0005H62.5269V31.9527H66.241V37.888H62.5269V44.7337C62.5269 45.292 62.6483 45.6926 62.891 45.9353C63.1581 46.1781 63.595 46.2995 64.2019 46.2995H66.2775ZM89.0683 41.9299C89.0683 42.4882 89.0319 43.0466 88.9591 43.6049H75.4498C75.5227 44.7216 75.8261 45.5591 76.3602 46.1174C76.9185 46.6514 77.6225 46.9185 78.4721 46.9185C79.6616 46.9185 80.5113 46.3844 81.021 45.3163H88.6314C88.3158 46.7243 87.6968 47.9866 86.7743 49.1033C85.8761 50.1956 84.7352 51.0574 83.3515 51.6886C81.9678 52.3197 80.4384 52.6353 78.7634 52.6353C76.7486 52.6353 74.9522 52.2105 73.3743 51.3609C71.8207 50.5112 70.5948 49.2975 69.6966 47.7196C68.8227 46.1417 68.3857 44.2846 68.3857 42.1484C68.3857 40.0121 68.8227 38.1672 69.6966 36.6136C70.5705 35.0357 71.7843 33.8219 73.3379 32.9723C74.9158 32.1226 76.7243 31.6978 78.7634 31.6978C80.7783 31.6978 82.5625 32.1105 84.1162 32.9359C85.6698 33.7612 86.8835 34.9507 87.7575 36.5043C88.6314 38.0337 89.0683 39.8422 89.0683 41.9299ZM81.7857 40.1456C81.7857 39.2717 81.4944 38.592 80.9118 38.1065C80.3292 37.5967 79.6009 37.3418 78.727 37.3418C77.8531 37.3418 77.137 37.5846 76.5787 38.0701C76.0203 38.5313 75.6562 39.2232 75.4863 40.1456H81.7857ZM99.5266 31.6978C100.91 31.6978 102.112 31.977 103.131 32.5353C104.175 33.0937 104.976 33.8462 105.535 34.7929V31.9527H112.672V52.162C112.672 54.0797 112.308 55.8033 111.579 57.3326C110.851 58.8862 109.71 60.1243 108.156 61.0467C106.627 61.9692 104.685 62.4304 102.33 62.4304C99.1746 62.4304 96.6499 61.69 94.7564 60.2092C92.863 58.7284 91.7827 56.7136 91.5157 54.1647H98.5434C98.6891 54.8201 99.0532 55.3299 99.6358 55.694C100.218 56.0581 100.971 56.2402 101.893 56.2402C104.321 56.2402 105.535 54.8808 105.535 52.162V49.5402C104.976 50.487 104.175 51.2395 103.131 51.7978C102.112 52.3562 100.91 52.6353 99.5266 52.6353C97.9001 52.6353 96.4193 52.2105 95.0842 51.3609C93.7733 50.5112 92.7294 49.2975 91.9526 47.7196C91.2001 46.1174 90.8238 44.2603 90.8238 42.1484C90.8238 40.0364 91.2001 38.1915 91.9526 36.6136C92.7294 35.0357 93.7733 33.8219 95.0842 32.9723C96.4193 32.1226 97.9001 31.6978 99.5266 31.6978ZM105.535 42.1484C105.535 40.8375 105.171 39.8058 104.442 39.0533C103.738 38.3007 102.864 37.9245 101.821 37.9245C100.752 37.9245 99.8664 38.3007 99.1624 39.0533C98.4584 39.7815 98.1064 40.8132 98.1064 42.1484C98.1064 43.4592 98.4584 44.5031 99.1624 45.2799C99.8664 46.0324 100.752 46.4087 101.821 46.4087C102.864 46.4087 103.738 46.0324 104.442 45.2799C105.171 44.5274 105.535 43.4835 105.535 42.1484ZM123.875 35.5576C124.677 34.3924 125.648 33.4699 126.789 32.7902C127.929 32.1105 129.155 31.7706 130.466 31.7706V39.381H128.464C126.91 39.381 125.757 39.6844 125.004 40.2913C124.252 40.8982 123.875 41.9542 123.875 43.4592V52.3804H116.739V31.9527H123.875V35.5576ZM131.86 42.1484C131.86 40.0364 132.236 38.1915 132.988 36.6136C133.765 35.0357 134.809 33.8219 136.12 32.9723C137.455 32.1226 138.936 31.6978 140.562 31.6978C141.97 31.6978 143.184 31.977 144.204 32.5353C145.223 33.0937 146.012 33.8462 146.57 34.7929V31.9527H153.707V52.3804H146.57V49.5402C146.012 50.487 145.211 51.2395 144.167 51.7978C143.148 52.3562 141.946 52.6353 140.562 52.6353C138.936 52.6353 137.455 52.2105 136.12 51.3609C134.809 50.5112 133.765 49.2975 132.988 47.7196C132.236 46.1174 131.86 44.2603 131.86 42.1484ZM146.57 42.1484C146.57 40.8375 146.206 39.8058 145.478 39.0533C144.774 38.3007 143.9 37.9245 142.856 37.9245C141.788 37.9245 140.902 38.3007 140.198 39.0533C139.494 39.7815 139.142 40.8132 139.142 42.1484C139.142 43.4592 139.494 44.5031 140.198 45.2799C140.902 46.0324 141.788 46.4087 142.856 46.4087C143.9 46.4087 144.774 46.0324 145.478 45.2799C146.206 44.5274 146.57 43.4835 146.57 42.1484ZM171.138 31.7706C173.493 31.7706 175.362 32.5596 176.746 34.1375C178.129 35.6911 178.821 37.8031 178.821 40.4734V52.3804H171.684V41.4201C171.684 40.2549 171.381 39.3446 170.774 38.6891C170.167 38.0094 169.354 37.6696 168.334 37.6696C167.266 37.6696 166.428 38.0094 165.822 38.6891C165.215 39.3446 164.911 40.2549 164.911 41.4201V52.3804H157.774V31.9527H164.911V34.8658C165.542 33.9433 166.392 33.2029 167.46 32.6446C168.528 32.062 169.754 31.7706 171.138 31.7706ZM194.79 46.2995V52.3804H191.695C186.476 52.3804 183.866 49.7951 183.866 44.6245V37.888H181.353V31.9527H183.866V27.0005H191.039V31.9527H194.753V37.888H191.039V44.7337C191.039 45.292 191.161 45.6926 191.403 45.9353C191.671 46.1781 192.107 46.2995 192.714 46.2995H194.79Z" fill="white"/>
</svg>
