<svg width="230" height="27" viewBox="0 0 230 27" fill="none" xmlns="http://www.w3.org/2000/svg">
<path d="M12.4473 15.0615C12.4473 16.1618 12.1722 17.1012 11.6221 17.8799C11.0804 18.6501 10.3187 19.2383 9.33691 19.6445C8.35514 20.0508 7.19987 20.2539 5.87109 20.2539C5.16862 20.2539 4.50423 20.2201 3.87793 20.1523C3.25163 20.0846 2.67611 19.9873 2.15137 19.8604C1.62663 19.7334 1.16536 19.5768 0.767578 19.3906V17.3213C1.40234 17.5837 2.17676 17.8291 3.09082 18.0576C4.00488 18.2777 4.96126 18.3877 5.95996 18.3877C6.89095 18.3877 7.67806 18.265 8.32129 18.0195C8.96452 17.7656 9.45117 17.4059 9.78125 16.9404C10.1198 16.4665 10.2891 15.8994 10.2891 15.2393C10.2891 14.6045 10.1494 14.0755 9.87012 13.6523C9.59082 13.2207 9.12533 12.8314 8.47363 12.4844C7.8304 12.1289 6.9502 11.7523 5.83301 11.3545C5.0459 11.0752 4.35189 10.7705 3.75098 10.4404C3.15007 10.1019 2.64648 9.72103 2.24023 9.29785C1.83398 8.87467 1.52507 8.38379 1.31348 7.8252C1.11035 7.2666 1.00879 6.6276 1.00879 5.9082C1.00879 4.91797 1.25846 4.07161 1.75781 3.36914C2.26562 2.6582 2.96387 2.11654 3.85254 1.74414C4.74967 1.36328 5.77799 1.17285 6.9375 1.17285C7.92773 1.17285 8.8418 1.26595 9.67969 1.45215C10.526 1.63835 11.3005 1.88802 12.0029 2.20117L11.3301 4.05469C10.6615 3.77539 9.95052 3.54264 9.19727 3.35645C8.45247 3.17025 7.68229 3.07715 6.88672 3.07715C6.09115 3.07715 5.41829 3.19564 4.86816 3.43262C4.3265 3.66113 3.91178 3.98698 3.62402 4.41016C3.33626 4.83333 3.19238 5.33691 3.19238 5.9209C3.19238 6.57259 3.3278 7.11426 3.59863 7.5459C3.87793 7.97754 4.31803 8.36263 4.91895 8.70117C5.52832 9.03125 6.33236 9.37826 7.33105 9.74219C8.42285 10.14 9.34961 10.5632 10.1113 11.0117C10.873 11.4518 11.4528 11.9935 11.8506 12.6367C12.2484 13.2715 12.4473 14.0798 12.4473 15.0615ZM18.0332 6.08594V20H15.9258V6.08594H18.0332ZM17.0049 0.880859C17.3519 0.880859 17.6481 0.995117 17.8936 1.22363C18.1475 1.44368 18.2744 1.79069 18.2744 2.26465C18.2744 2.73014 18.1475 3.07715 17.8936 3.30566C17.6481 3.53418 17.3519 3.64844 17.0049 3.64844C16.641 3.64844 16.3363 3.53418 16.0908 3.30566C15.8538 3.07715 15.7354 2.73014 15.7354 2.26465C15.7354 1.79069 15.8538 1.44368 16.0908 1.22363C16.3363 0.995117 16.641 0.880859 17.0049 0.880859ZM26.3867 26.2461C24.5586 26.2461 23.1494 25.9033 22.1592 25.2178C21.1689 24.5407 20.6738 23.5885 20.6738 22.3613C20.6738 21.4896 20.9489 20.7448 21.499 20.127C22.0576 19.5091 22.8278 19.0986 23.8096 18.8955C23.4456 18.7262 23.1325 18.4723 22.8701 18.1338C22.6162 17.7952 22.4893 17.4059 22.4893 16.9658C22.4893 16.458 22.6289 16.0137 22.9082 15.6328C23.196 15.2435 23.6318 14.8711 24.2158 14.5156C23.488 14.2194 22.8955 13.7201 22.4385 13.0176C21.9899 12.3066 21.7656 11.4814 21.7656 10.542C21.7656 9.54329 21.973 8.69271 22.3877 7.99023C22.8024 7.2793 23.4033 6.73763 24.1904 6.36523C24.9775 5.99284 25.9297 5.80664 27.0469 5.80664C27.2923 5.80664 27.5378 5.81934 27.7832 5.84473C28.0371 5.86165 28.2783 5.89128 28.5068 5.93359C28.7354 5.96745 28.9342 6.00977 29.1035 6.06055H33.877V7.41895L31.3125 7.73633C31.5664 8.06641 31.778 8.46419 31.9473 8.92969C32.1165 9.39518 32.2012 9.91146 32.2012 10.4785C32.2012 11.8665 31.7314 12.971 30.792 13.792C29.8525 14.6045 28.5618 15.0107 26.9199 15.0107C26.5306 15.0107 26.1328 14.9769 25.7266 14.9092C25.3118 15.1377 24.9945 15.3916 24.7744 15.6709C24.5628 15.9502 24.457 16.2718 24.457 16.6357C24.457 16.9066 24.5374 17.1224 24.6982 17.2832C24.8675 17.444 25.1087 17.5625 25.4219 17.6387C25.735 17.7064 26.1117 17.7402 26.5518 17.7402H29.002C30.5169 17.7402 31.6764 18.0576 32.4805 18.6924C33.293 19.3271 33.6992 20.2539 33.6992 21.4727C33.6992 23.013 33.0729 24.1937 31.8203 25.0146C30.5677 25.8356 28.7565 26.2461 26.3867 26.2461ZM26.4502 24.5957C27.6012 24.5957 28.5534 24.4772 29.3066 24.2402C30.0684 24.0117 30.6354 23.6774 31.0078 23.2373C31.3887 22.8057 31.5791 22.2894 31.5791 21.6885C31.5791 21.1299 31.4521 20.7067 31.1982 20.4189C30.9443 20.1396 30.5719 19.9535 30.0811 19.8604C29.5902 19.7588 28.9893 19.708 28.2783 19.708H25.8662C25.2399 19.708 24.694 19.8053 24.2285 20C23.763 20.1947 23.4033 20.4824 23.1494 20.8633C22.904 21.2441 22.7812 21.7181 22.7812 22.2852C22.7812 23.0384 23.0986 23.6097 23.7334 23.999C24.3682 24.3968 25.2738 24.5957 26.4502 24.5957ZM26.9961 13.4746C28.0033 13.4746 28.7607 13.2207 29.2686 12.7129C29.7764 12.2051 30.0303 11.4645 30.0303 10.4912C30.0303 9.4502 29.7721 8.67155 29.2559 8.15527C28.7396 7.63053 27.9779 7.36816 26.9707 7.36816C26.0059 7.36816 25.2611 7.639 24.7363 8.18066C24.2201 8.71387 23.9619 9.49674 23.9619 10.5293C23.9619 11.4772 24.2243 12.2051 24.749 12.7129C25.2738 13.2207 26.0228 13.4746 26.9961 13.4746ZM43.208 5.83203C44.8584 5.83203 46.1068 6.23828 46.9531 7.05078C47.7995 7.85482 48.2227 9.14974 48.2227 10.9355V20H46.1406V11.0752C46.1406 9.91569 45.874 9.04818 45.3408 8.47266C44.8161 7.89714 44.0078 7.60938 42.916 7.60938C41.3757 7.60938 40.2923 8.04525 39.666 8.91699C39.0397 9.78874 38.7266 11.054 38.7266 12.7129V20H36.6191V6.08594H38.3203L38.6377 8.0918H38.752C39.0482 7.60091 39.4248 7.19043 39.8818 6.86035C40.3389 6.52181 40.8509 6.2679 41.418 6.09863C41.985 5.9209 42.5817 5.83203 43.208 5.83203ZM61.4258 6.08594V20H59.3184V6.08594H61.4258ZM60.3975 0.880859C60.7445 0.880859 61.0407 0.995117 61.2861 1.22363C61.54 1.44368 61.667 1.79069 61.667 2.26465C61.667 2.73014 61.54 3.07715 61.2861 3.30566C61.0407 3.53418 60.7445 3.64844 60.3975 3.64844C60.0335 3.64844 59.7288 3.53418 59.4834 3.30566C59.2464 3.07715 59.1279 2.73014 59.1279 2.26465C59.1279 1.79069 59.2464 1.44368 59.4834 1.22363C59.7288 0.995117 60.0335 0.880859 60.3975 0.880859ZM72.4834 5.83203C74.1338 5.83203 75.3822 6.23828 76.2285 7.05078C77.0749 7.85482 77.498 9.14974 77.498 10.9355V20H75.416V11.0752C75.416 9.91569 75.1494 9.04818 74.6162 8.47266C74.0915 7.89714 73.2832 7.60938 72.1914 7.60938C70.651 7.60938 69.5677 8.04525 68.9414 8.91699C68.3151 9.78874 68.002 11.054 68.002 12.7129V20H65.8945V6.08594H67.5957L67.9131 8.0918H68.0273C68.3236 7.60091 68.7002 7.19043 69.1572 6.86035C69.6143 6.52181 70.1263 6.2679 70.6934 6.09863C71.2604 5.9209 71.8571 5.83203 72.4834 5.83203ZM99.918 19.9746L97.4424 11.875C97.3324 11.528 97.2266 11.1895 97.125 10.8594C97.0319 10.5208 96.943 10.1992 96.8584 9.89453C96.7822 9.58138 96.7103 9.29362 96.6426 9.03125C96.5833 8.76042 96.5326 8.52767 96.4902 8.33301H96.4014C96.3675 8.52767 96.321 8.76042 96.2617 9.03125C96.2025 9.29362 96.1305 9.58138 96.0459 9.89453C95.9697 10.2077 95.8851 10.5378 95.792 10.8848C95.6989 11.2233 95.5931 11.5661 95.4746 11.9131L92.8848 19.9746H90.5107L86.6768 6.06055H88.8604L90.8662 13.7412C91.0016 14.249 91.1286 14.7526 91.2471 15.252C91.374 15.7428 91.4798 16.2083 91.5645 16.6484C91.6576 17.0801 91.7253 17.4567 91.7676 17.7783H91.8691C91.9199 17.5667 91.9749 17.3128 92.0342 17.0166C92.1019 16.7204 92.1738 16.4072 92.25 16.0771C92.3346 15.7386 92.4235 15.4043 92.5166 15.0742C92.6097 14.7357 92.7028 14.4183 92.7959 14.1221L95.3604 6.06055H97.6328L100.108 14.1094C100.235 14.5156 100.358 14.9388 100.477 15.3789C100.604 15.819 100.718 16.2464 100.819 16.6611C100.921 17.0674 100.993 17.4313 101.035 17.7529H101.137C101.171 17.4652 101.234 17.1097 101.327 16.6865C101.42 16.2633 101.526 15.7979 101.645 15.29C101.771 14.7822 101.903 14.266 102.038 13.7412L104.069 6.06055H106.215L102.368 19.9746H99.918ZM110.861 6.08594V20H108.754V6.08594H110.861ZM109.833 0.880859C110.18 0.880859 110.476 0.995117 110.722 1.22363C110.976 1.44368 111.103 1.79069 111.103 2.26465C111.103 2.73014 110.976 3.07715 110.722 3.30566C110.476 3.53418 110.18 3.64844 109.833 3.64844C109.469 3.64844 109.164 3.53418 108.919 3.30566C108.682 3.07715 108.563 2.73014 108.563 2.26465C108.563 1.79069 108.682 1.44368 108.919 1.22363C109.164 0.995117 109.469 0.880859 109.833 0.880859ZM119.824 18.5273C120.171 18.5273 120.527 18.4977 120.891 18.4385C121.255 18.3792 121.551 18.3073 121.779 18.2227V19.8604C121.534 19.9704 121.191 20.0635 120.751 20.1396C120.319 20.2158 119.896 20.2539 119.481 20.2539C118.745 20.2539 118.076 20.127 117.476 19.873C116.875 19.6107 116.392 19.1706 116.028 18.5527C115.673 17.9349 115.495 17.0801 115.495 15.9883V7.73633H113.515V6.70801L115.508 5.88281L116.346 2.86133H117.615V6.08594H121.69V7.73633H117.615V15.9248C117.615 16.7965 117.814 17.4482 118.212 17.8799C118.618 18.3115 119.156 18.5273 119.824 18.5273ZM126.705 0.246094V6.14941C126.705 6.48796 126.697 6.83073 126.68 7.17773C126.663 7.51628 126.633 7.82943 126.591 8.11719H126.73C127.018 7.6263 127.382 7.21582 127.822 6.88574C128.271 6.5472 128.779 6.29329 129.346 6.12402C129.913 5.94629 130.514 5.85742 131.148 5.85742C132.266 5.85742 133.197 6.03516 133.941 6.39062C134.695 6.74609 135.257 7.29622 135.63 8.04102C136.011 8.78581 136.201 9.75065 136.201 10.9355V20H134.119V11.0752C134.119 9.91569 133.853 9.04818 133.319 8.47266C132.795 7.89714 131.986 7.60938 130.895 7.60938C129.862 7.60938 129.037 7.80827 128.419 8.20605C127.81 8.59538 127.369 9.1709 127.099 9.93262C126.836 10.6943 126.705 11.6253 126.705 12.7256V20H124.598V0.246094H126.705ZM155.549 10.2754H162.036V19.2764C161.063 19.6064 160.06 19.8519 159.027 20.0127C158.003 20.1735 156.856 20.2539 155.587 20.2539C153.657 20.2539 152.028 19.8688 150.699 19.0986C149.379 18.3285 148.376 17.2324 147.69 15.8105C147.005 14.3802 146.662 12.6833 146.662 10.7197C146.662 8.7985 147.039 7.12272 147.792 5.69238C148.554 4.26204 149.65 3.15332 151.08 2.36621C152.519 1.57064 154.245 1.17285 156.26 1.17285C157.292 1.17285 158.27 1.27018 159.192 1.46484C160.123 1.65104 160.987 1.91764 161.782 2.26465L160.957 4.14355C160.271 3.84733 159.514 3.59342 158.685 3.38184C157.864 3.17025 157.013 3.06445 156.133 3.06445C154.618 3.06445 153.319 3.3776 152.235 4.00391C151.16 4.63021 150.335 5.51465 149.76 6.65723C149.193 7.7998 148.909 9.15397 148.909 10.7197C148.909 12.2686 149.159 13.6185 149.658 14.7695C150.158 15.9121 150.936 16.8008 151.994 17.4355C153.052 18.0703 154.415 18.3877 156.082 18.3877C156.92 18.3877 157.639 18.3411 158.24 18.248C158.841 18.1465 159.387 18.028 159.878 17.8926V12.2051H155.549V10.2754ZM178.21 13.0176C178.21 14.1602 178.062 15.18 177.766 16.0771C177.469 16.9743 177.042 17.7318 176.483 18.3496C175.925 18.9674 175.248 19.4414 174.452 19.7715C173.665 20.0931 172.772 20.2539 171.773 20.2539C170.842 20.2539 169.988 20.0931 169.209 19.7715C168.439 19.4414 167.77 18.9674 167.203 18.3496C166.645 17.7318 166.209 16.9743 165.896 16.0771C165.591 15.18 165.438 14.1602 165.438 13.0176C165.438 11.4941 165.697 10.1992 166.213 9.13281C166.729 8.05794 167.465 7.24121 168.422 6.68262C169.387 6.11556 170.534 5.83203 171.862 5.83203C173.132 5.83203 174.241 6.11556 175.188 6.68262C176.145 7.24967 176.885 8.07064 177.41 9.14551C177.943 10.2119 178.21 11.5026 178.21 13.0176ZM167.622 13.0176C167.622 14.1348 167.77 15.1038 168.066 15.9248C168.363 16.7458 168.82 17.3805 169.438 17.8291C170.055 18.2777 170.851 18.502 171.824 18.502C172.789 18.502 173.58 18.2777 174.198 17.8291C174.825 17.3805 175.286 16.7458 175.582 15.9248C175.878 15.1038 176.026 14.1348 176.026 13.0176C176.026 11.9089 175.878 10.9525 175.582 10.1484C175.286 9.33594 174.829 8.70964 174.211 8.26953C173.593 7.82943 172.793 7.60938 171.812 7.60938C170.364 7.60938 169.302 8.08757 168.625 9.04395C167.956 10.0003 167.622 11.3249 167.622 13.0176ZM193.851 13.0176C193.851 14.1602 193.702 15.18 193.406 16.0771C193.11 16.9743 192.683 17.7318 192.124 18.3496C191.565 18.9674 190.888 19.4414 190.093 19.7715C189.306 20.0931 188.413 20.2539 187.414 20.2539C186.483 20.2539 185.628 20.0931 184.85 19.7715C184.079 19.4414 183.411 18.9674 182.844 18.3496C182.285 17.7318 181.849 16.9743 181.536 16.0771C181.231 15.18 181.079 14.1602 181.079 13.0176C181.079 11.4941 181.337 10.1992 181.854 9.13281C182.37 8.05794 183.106 7.24121 184.062 6.68262C185.027 6.11556 186.174 5.83203 187.503 5.83203C188.772 5.83203 189.881 6.11556 190.829 6.68262C191.785 7.24967 192.526 8.07064 193.051 9.14551C193.584 10.2119 193.851 11.5026 193.851 13.0176ZM183.263 13.0176C183.263 14.1348 183.411 15.1038 183.707 15.9248C184.003 16.7458 184.46 17.3805 185.078 17.8291C185.696 18.2777 186.492 18.502 187.465 18.502C188.43 18.502 189.221 18.2777 189.839 17.8291C190.465 17.3805 190.926 16.7458 191.223 15.9248C191.519 15.1038 191.667 14.1348 191.667 13.0176C191.667 11.9089 191.519 10.9525 191.223 10.1484C190.926 9.33594 190.469 8.70964 189.852 8.26953C189.234 7.82943 188.434 7.60938 187.452 7.60938C186.005 7.60938 184.943 8.08757 184.266 9.04395C183.597 10.0003 183.263 11.3249 183.263 13.0176ZM201.379 26.2461C199.551 26.2461 198.142 25.9033 197.151 25.2178C196.161 24.5407 195.666 23.5885 195.666 22.3613C195.666 21.4896 195.941 20.7448 196.491 20.127C197.05 19.5091 197.82 19.0986 198.802 18.8955C198.438 18.7262 198.125 18.4723 197.862 18.1338C197.608 17.7952 197.481 17.4059 197.481 16.9658C197.481 16.458 197.621 16.0137 197.9 15.6328C198.188 15.2435 198.624 14.8711 199.208 14.5156C198.48 14.2194 197.888 13.7201 197.431 13.0176C196.982 12.3066 196.758 11.4814 196.758 10.542C196.758 9.54329 196.965 8.69271 197.38 7.99023C197.795 7.2793 198.396 6.73763 199.183 6.36523C199.97 5.99284 200.922 5.80664 202.039 5.80664C202.285 5.80664 202.53 5.81934 202.775 5.84473C203.029 5.86165 203.271 5.89128 203.499 5.93359C203.728 5.96745 203.926 6.00977 204.096 6.06055H208.869V7.41895L206.305 7.73633C206.559 8.06641 206.77 8.46419 206.939 8.92969C207.109 9.39518 207.193 9.91146 207.193 10.4785C207.193 11.8665 206.724 12.971 205.784 13.792C204.845 14.6045 203.554 15.0107 201.912 15.0107C201.523 15.0107 201.125 14.9769 200.719 14.9092C200.304 15.1377 199.987 15.3916 199.767 15.6709C199.555 15.9502 199.449 16.2718 199.449 16.6357C199.449 16.9066 199.53 17.1224 199.69 17.2832C199.86 17.444 200.101 17.5625 200.414 17.6387C200.727 17.7064 201.104 17.7402 201.544 17.7402H203.994C205.509 17.7402 206.669 18.0576 207.473 18.6924C208.285 19.3271 208.691 20.2539 208.691 21.4727C208.691 23.013 208.065 24.1937 206.812 25.0146C205.56 25.8356 203.749 26.2461 201.379 26.2461ZM201.442 24.5957C202.593 24.5957 203.546 24.4772 204.299 24.2402C205.061 24.0117 205.628 23.6774 206 23.2373C206.381 22.8057 206.571 22.2894 206.571 21.6885C206.571 21.1299 206.444 20.7067 206.19 20.4189C205.937 20.1396 205.564 19.9535 205.073 19.8604C204.582 19.7588 203.981 19.708 203.271 19.708H200.858C200.232 19.708 199.686 19.8053 199.221 20C198.755 20.1947 198.396 20.4824 198.142 20.8633C197.896 21.2441 197.773 21.7181 197.773 22.2852C197.773 23.0384 198.091 23.6097 198.726 23.999C199.36 24.3968 200.266 24.5957 201.442 24.5957ZM201.988 13.4746C202.995 13.4746 203.753 13.2207 204.261 12.7129C204.769 12.2051 205.022 11.4645 205.022 10.4912C205.022 9.4502 204.764 8.67155 204.248 8.15527C203.732 7.63053 202.97 7.36816 201.963 7.36816C200.998 7.36816 200.253 7.639 199.729 8.18066C199.212 8.71387 198.954 9.49674 198.954 10.5293C198.954 11.4772 199.216 12.2051 199.741 12.7129C200.266 13.2207 201.015 13.4746 201.988 13.4746ZM213.731 20H211.611V0.246094H213.731V20ZM223.545 5.83203C224.73 5.83203 225.745 6.0944 226.592 6.61914C227.438 7.14388 228.086 7.88021 228.534 8.82812C228.983 9.76758 229.207 10.8678 229.207 12.1289V13.4365H219.597C219.622 15.07 220.028 16.3141 220.815 17.1689C221.603 18.0238 222.711 18.4512 224.142 18.4512C225.022 18.4512 225.8 18.3708 226.478 18.21C227.155 18.0492 227.857 17.8122 228.585 17.499V19.3525C227.882 19.6657 227.184 19.8942 226.49 20.0381C225.805 20.182 224.992 20.2539 224.053 20.2539C222.715 20.2539 221.548 19.9831 220.549 19.4414C219.559 18.8913 218.788 18.0872 218.238 17.0293C217.688 15.9714 217.413 14.6764 217.413 13.1445C217.413 11.6465 217.663 10.3516 218.162 9.25977C218.67 8.15951 219.381 7.31315 220.295 6.7207C221.217 6.12826 222.301 5.83203 223.545 5.83203ZM223.52 7.55859C222.394 7.55859 221.497 7.92676 220.828 8.66309C220.16 9.39941 219.762 10.4277 219.635 11.748H226.998C226.99 10.9186 226.858 10.1908 226.604 9.56445C226.359 8.92969 225.982 8.4388 225.475 8.0918C224.967 7.73633 224.315 7.55859 223.52 7.55859Z" fill="black"/>
</svg>
